<svg width="328" height="42" viewBox="0 0 328 42" fill="none" xmlns="http://www.w3.org/2000/svg">
<rect width="328" height="42" rx="6" fill="#7EB7D0"/>
<mask id="path-2-outside-1_9_221" maskUnits="userSpaceOnUse" x="144" y="15" width="38" height="13" fill="black">
<rect fill="white" x="144" y="15" width="38" height="13"/>
<path d="M144.882 25.572H156.348V26.538H144.882V25.572ZM150.006 22.856H151.168V25.978H150.006V22.856ZM146.268 16.374H154.934V20.21H147.458V22.744H146.31V19.272H153.786V17.312H146.268V16.374ZM146.31 22.254H155.228V23.206H146.31V22.254ZM158.993 16.78H167.141V17.718H158.993V16.78ZM157.761 25.278H169.199V26.244H157.761V25.278ZM166.525 16.78H167.659V18.04C167.659 19.664 167.659 21.47 167.183 24.2L166.021 24.088C166.525 21.498 166.525 19.608 166.525 18.04V16.78ZM179.837 15.45H181.013V24.69H179.837V15.45ZM172.879 26.86H181.391V27.812H172.879V26.86ZM172.879 23.738H174.027V27.182H172.879V23.738ZM174.223 16.318C176.113 16.318 177.513 17.606 177.513 19.44C177.513 21.26 176.113 22.562 174.223 22.562C172.333 22.562 170.919 21.26 170.919 19.44C170.919 17.606 172.333 16.318 174.223 16.318ZM174.223 17.326C172.991 17.326 172.053 18.194 172.053 19.44C172.053 20.672 172.991 21.54 174.223 21.54C175.455 21.54 176.393 20.672 176.393 19.44C176.393 18.194 175.455 17.326 174.223 17.326Z"/>
</mask>
<path d="M144.882 25.572H156.348V26.538H144.882V25.572ZM150.006 22.856H151.168V25.978H150.006V22.856ZM146.268 16.374H154.934V20.21H147.458V22.744H146.31V19.272H153.786V17.312H146.268V16.374ZM146.31 22.254H155.228V23.206H146.31V22.254ZM158.993 16.78H167.141V17.718H158.993V16.78ZM157.761 25.278H169.199V26.244H157.761V25.278ZM166.525 16.78H167.659V18.04C167.659 19.664 167.659 21.47 167.183 24.2L166.021 24.088C166.525 21.498 166.525 19.608 166.525 18.04V16.78ZM179.837 15.45H181.013V24.69H179.837V15.45ZM172.879 26.86H181.391V27.812H172.879V26.86ZM172.879 23.738H174.027V27.182H172.879V23.738ZM174.223 16.318C176.113 16.318 177.513 17.606 177.513 19.44C177.513 21.26 176.113 22.562 174.223 22.562C172.333 22.562 170.919 21.26 170.919 19.44C170.919 17.606 172.333 16.318 174.223 16.318ZM174.223 17.326C172.991 17.326 172.053 18.194 172.053 19.44C172.053 20.672 172.991 21.54 174.223 21.54C175.455 21.54 176.393 20.672 176.393 19.44C176.393 18.194 175.455 17.326 174.223 17.326Z" fill="#5F5F5F"/>
<path d="M144.882 25.572V25.472H144.782V25.572H144.882ZM156.348 25.572H156.448V25.472H156.348V25.572ZM156.348 26.538V26.638H156.448V26.538H156.348ZM144.882 26.538H144.782V26.638H144.882V26.538ZM150.006 22.856V22.756H149.906V22.856H150.006ZM151.168 22.856H151.268V22.756H151.168V22.856ZM151.168 25.978V26.078H151.268V25.978H151.168ZM150.006 25.978H149.906V26.078H150.006V25.978ZM146.268 16.374V16.274H146.168V16.374H146.268ZM154.934 16.374H155.034V16.274H154.934V16.374ZM154.934 20.21V20.31H155.034V20.21H154.934ZM147.458 20.21V20.11H147.358V20.21H147.458ZM147.458 22.744V22.844H147.558V22.744H147.458ZM146.31 22.744H146.21V22.844H146.31V22.744ZM146.31 19.272V19.172H146.21V19.272H146.31ZM153.786 19.272V19.372H153.886V19.272H153.786ZM153.786 17.312H153.886V17.212H153.786V17.312ZM146.268 17.312H146.168V17.412H146.268V17.312ZM146.31 22.254V22.154H146.21V22.254H146.31ZM155.228 22.254H155.328V22.154H155.228V22.254ZM155.228 23.206V23.306H155.328V23.206H155.228ZM146.31 23.206H146.21V23.306H146.31V23.206ZM144.882 25.672H156.348V25.472H144.882V25.672ZM156.248 25.572V26.538H156.448V25.572H156.248ZM156.348 26.438H144.882V26.638H156.348V26.438ZM144.982 26.538V25.572H144.782V26.538H144.982ZM150.006 22.956H151.168V22.756H150.006V22.956ZM151.068 22.856V25.978H151.268V22.856H151.068ZM151.168 25.878H150.006V26.078H151.168V25.878ZM150.106 25.978V22.856H149.906V25.978H150.106ZM146.268 16.474H154.934V16.274H146.268V16.474ZM154.834 16.374V20.21H155.034V16.374H154.834ZM154.934 20.11H147.458V20.31H154.934V20.11ZM147.358 20.21V22.744H147.558V20.21H147.358ZM147.458 22.644H146.31V22.844H147.458V22.644ZM146.41 22.744V19.272H146.21V22.744H146.41ZM146.31 19.372H153.786V19.172H146.31V19.372ZM153.886 19.272V17.312H153.686V19.272H153.886ZM153.786 17.212H146.268V17.412H153.786V17.212ZM146.368 17.312V16.374H146.168V17.312H146.368ZM146.31 22.354H155.228V22.154H146.31V22.354ZM155.128 22.254V23.206H155.328V22.254H155.128ZM155.228 23.106H146.31V23.306H155.228V23.106ZM146.41 23.206V22.254H146.21V23.206H146.41ZM158.993 16.78V16.68H158.893V16.78H158.993ZM167.141 16.78H167.241V16.68H167.141V16.78ZM167.141 17.718V17.818H167.241V17.718H167.141ZM158.993 17.718H158.893V17.818H158.993V17.718ZM157.761 25.278V25.178H157.661V25.278H157.761ZM169.199 25.278H169.299V25.178H169.199V25.278ZM169.199 26.244V26.344H169.299V26.244H169.199ZM157.761 26.244H157.661V26.344H157.761V26.244ZM166.525 16.78V16.68H166.425V16.78H166.525ZM167.659 16.78H167.759V16.68H167.659V16.78ZM167.183 24.2L167.173 24.2995L167.265 24.3084L167.281 24.2172L167.183 24.2ZM166.021 24.088L165.922 24.0689L165.901 24.177L166.011 24.1875L166.021 24.088ZM158.993 16.88H167.141V16.68H158.993V16.88ZM167.041 16.78V17.718H167.241V16.78H167.041ZM167.141 17.618H158.993V17.818H167.141V17.618ZM159.093 17.718V16.78H158.893V17.718H159.093ZM157.761 25.378H169.199V25.178H157.761V25.378ZM169.099 25.278V26.244H169.299V25.278H169.099ZM169.199 26.144H157.761V26.344H169.199V26.144ZM157.861 26.244V25.278H157.661V26.244H157.861ZM166.525 16.88H167.659V16.68H166.525V16.88ZM167.559 16.78V18.04H167.759V16.78H167.559ZM167.559 18.04C167.559 19.6624 167.559 21.4615 167.084 24.1828L167.281 24.2172C167.759 21.4785 167.759 19.6656 167.759 18.04H167.559ZM167.192 24.1005L166.03 23.9885L166.011 24.1875L167.173 24.2995L167.192 24.1005ZM166.119 24.1071C166.625 21.5072 166.625 19.6093 166.625 18.04H166.425C166.425 19.6067 166.424 21.4888 165.922 24.0689L166.119 24.1071ZM166.625 18.04V16.78H166.425V18.04H166.625ZM179.837 15.45V15.35H179.737V15.45H179.837ZM181.013 15.45H181.113V15.35H181.013V15.45ZM181.013 24.69V24.79H181.113V24.69H181.013ZM179.837 24.69H179.737V24.79H179.837V24.69ZM172.879 26.86V26.76H172.779V26.86H172.879ZM181.391 26.86H181.491V26.76H181.391V26.86ZM181.391 27.812V27.912H181.491V27.812H181.391ZM172.879 27.812H172.779V27.912H172.879V27.812ZM172.879 23.738V23.638H172.779V23.738H172.879ZM174.027 23.738H174.127V23.638H174.027V23.738ZM174.027 27.182V27.282H174.127V27.182H174.027ZM172.879 27.182H172.779V27.282H172.879V27.182ZM179.837 15.55H181.013V15.35H179.837V15.55ZM180.913 15.45V24.69H181.113V15.45H180.913ZM181.013 24.59H179.837V24.79H181.013V24.59ZM179.937 24.69V15.45H179.737V24.69H179.937ZM172.879 26.96H181.391V26.76H172.879V26.96ZM181.291 26.86V27.812H181.491V26.86H181.291ZM181.391 27.712H172.879V27.912H181.391V27.712ZM172.979 27.812V26.86H172.779V27.812H172.979ZM172.879 23.838H174.027V23.638H172.879V23.838ZM173.927 23.738V27.182H174.127V23.738H173.927ZM174.027 27.082H172.879V27.282H174.027V27.082ZM172.979 27.182V23.738H172.779V27.182H172.979ZM174.223 16.418C176.064 16.418 177.413 17.6669 177.413 19.44H177.613C177.613 17.5451 176.163 16.218 174.223 16.218V16.418ZM177.413 19.44C177.413 21.1994 176.064 22.462 174.223 22.462V22.662C176.163 22.662 177.613 21.3206 177.613 19.44H177.413ZM174.223 22.462C172.383 22.462 171.019 21.1988 171.019 19.44H170.819C170.819 21.3212 172.284 22.662 174.223 22.662V22.462ZM171.019 19.44C171.019 17.6675 172.382 16.418 174.223 16.418V16.218C172.285 16.218 170.819 17.5445 170.819 19.44H171.019ZM174.223 17.226C172.94 17.226 171.953 18.1349 171.953 19.44H172.153C172.153 18.2531 173.043 17.426 174.223 17.426V17.226ZM171.953 19.44C171.953 20.7315 172.941 21.64 174.223 21.64V21.44C173.042 21.44 172.153 20.6125 172.153 19.44H171.953ZM174.223 21.64C175.506 21.64 176.493 20.7315 176.493 19.44H176.293C176.293 20.6125 175.405 21.44 174.223 21.44V21.64ZM176.493 19.44C176.493 18.1349 175.507 17.226 174.223 17.226V17.426C175.404 17.426 176.293 18.2531 176.293 19.44H176.493Z" fill="#5F5F5F" mask="url(#path-2-outside-1_9_221)"/>
</svg>
